<?xml version="1.0" encoding="utf-8"?>
<!-- Generator: Adobe Illustrator 21.1.0, SVG Export Plug-In . SVG Version: 6.00 Build 0)  -->
<svg version="1.1" id="Layer_1" xmlns="http://www.w3.org/2000/svg" xmlns:xlink="http://www.w3.org/1999/xlink" x="0px" y="0px"
	 viewBox="0 0 512 512" style="enable-background:new 0 0 512 512;" xml:space="preserve">
<style type="text/css">
	.st0{fill:none;stroke:#505050;stroke-width:18;stroke-linecap:round;stroke-linejoin:round;stroke-miterlimit:10;}
	.st1{fill:none;}
	.st2{fill:#FFFFFF;stroke:#505050;stroke-width:18;stroke-linecap:round;stroke-linejoin:round;stroke-miterlimit:10;}
	.st3{fill:#505050;}
	.st4{font-family:'FunCityLevel2Basic';}
	.st5{font-size:125.0541px;}
</style>
<path class="st0" d="M419,480H93c-33.7,0-61-27.3-61-61V93c0-33.7,27.3-61,61-61h326c33.7,0,61,27.3,61,61v326
	C480,452.7,452.7,480,419,480z"/>
<polygon class="st1" points="65.9,213.1 65.9,254.7 258.2,253.8 122,122 87,165.7 "/>
<polygon class="st1" points="65.9,213.1 65.9,254.7 258.2,253.8 122,122 87,165.7 "/>
<polygon class="st1" points="65.9,213.1 65.9,254.7 258.2,253.8 122,122 87,165.7 "/>
<polygon class="st1" points="65.9,213.1 65.9,254.7 258.2,253.8 122,122 87,165.7 "/>
<polygon class="st1" points="65.9,213.1 65.9,254.7 258.2,253.8 122,122 87,165.7 "/>
<polygon class="st1" points="65.9,213.1 65.9,254.7 258.2,253.8 122,122 87,165.7 "/>
<polygon class="st1" points="65.9,213.1 65.9,254.7 258.2,253.8 122,122 87,165.7 "/>
<polygon class="st1" points="65.9,213.1 65.9,254.7 258.2,253.8 122,122 87,165.7 "/>
<polygon class="st1" points="65.9,213.1 65.9,254.7 258.2,253.8 122,122 87,165.7 "/>
<polygon class="st1" points="65.9,213.1 65.9,254.7 258.2,253.8 122,122 87,165.7 "/>
<polygon class="st1" points="65.9,213.1 65.9,254.7 258.2,253.8 122,122 87,165.7 "/>
<polygon class="st1" points="65.9,213.1 65.9,254.7 258.2,253.8 122,122 87,165.7 "/>
<polygon class="st1" points="65.9,213.1 65.9,254.7 258.2,253.8 122,122 87,165.7 "/>
<polygon class="st1" points="65.9,213.1 65.9,254.7 258.2,253.8 122,122 87,165.7 "/>
<polygon class="st1" points="65.9,213.1 65.9,254.7 258.2,253.8 122,122 87,165.7 "/>
<polygon class="st1" points="65.9,213.1 65.9,254.7 258.2,253.8 122,122 87,165.7 "/>
<polygon class="st1" points="65.9,213.1 65.9,254.7 258.2,253.8 122,122 87,165.7 "/>
<polygon class="st1" points="65.9,213.1 65.9,254.7 258.2,253.8 122,122 87,165.7 "/>
<polygon class="st1" points="65.9,213.1 65.9,254.7 258.2,253.8 122,122 87,165.7 "/>
<polygon class="st1" points="65.9,213.1 65.9,254.7 258.2,253.8 122,122 87,165.7 "/>
<polygon class="st1" points="65.9,213.1 65.9,254.7 258.2,253.8 122,122 87,165.7 "/>
<polygon class="st1" points="65.9,213.1 65.9,254.7 258.2,253.8 122,122 87,165.7 "/>
<path class="st0" d="M259.2,252.8l132.2-132.2"/>
<path class="st0" d="M122,122l130.8,130.8"/>
<polygon class="st0" points="391.4,213.5 391.4,120.6 298.5,120.6 "/>
<g>
	<path class="st0" d="M154.4,418.5c61.9,38.8,141.2,38.8,203.2,0"/>
	<path class="st0" d="M447.6,253.1c-0.7-48.1-19.4-95.9-56.1-132.6c-74.8-74.8-196.1-74.8-271,0C83.8,157.2,65.2,205,64.4,253.1"/>
</g>
<path class="st2" d="M32,243.1h448v165.4H32V243.1z"/>
<text transform="matrix(1 0 0 1 74.6483 373.6527)" class="st3 st4 st5">LKG</text>
</svg>
