<svg xmlns="http://www.w3.org/2000/svg" viewBox="0 0 512 512"><style>.st0{fill:none;stroke:#505050;stroke-width:4.3873;stroke-linecap:round;stroke-linejoin:round;stroke-miterlimit:10}.st1{fill:#505050}.st2{fill:none}</style><path class="st0" d="M447.6 480H64.4C46.5 480 32 465.5 32 447.6V64.4C32 46.5 46.5 32 64.4 32h383.2c17.9 0 32.4 14.5 32.4 32.4v383.2c0 17.9-14.5 32.4-32.4 32.4z"/><path class="st1" d="M239.6 376.9v7c0 4-2.6 6.7-7.5 6.7s-7.5-2.7-7.5-6.7v-7h3v6.8c0 2.7 1.6 4.3 4.4 4.3 2.9 0 4.4-1.6 4.4-4.3v-6.8h3.2zm22.4 9.3c0 2.6-2.5 4.4-7.2 4.4-3.4 0-6.1-1-8.1-2.7l1.7-2.1c1.6 1.5 3.7 2.2 6.5 2.2 2.7 0 4.1-.5 4.1-1.6s-1.4-1.4-4.4-1.7c-3.8-.3-7.3-1.2-7.3-4s3-4.3 7.1-4.3c2.9 0 5.4.7 7.1 2l-1.7 2.1c-1.5-1.1-3.3-1.6-5.4-1.6-1.8 0-4 .3-4 1.5 0 1.1 1.9 1.3 4.5 1.5 4.1.5 7.1 1.4 7.1 4.3zm17.9 1.2h-8l-1.4 2.8h-3.3l7.1-13.3h3.3l7.1 13.3h-3.3l-1.5-2.8zm-1.3-2.5l-2.8-5.4-2.8 5.4h5.6zm-213-98.6c0-1.2.9-2.1 2.1-2.1s2.1.9 2.1 2.1v19h15.4c1.2 0 2.1.9 2.1 2.1s-.9 2.1-2.1 2.1H67.7c-1.2 0-2.1-.9-2.1-2.1v-21.1zm32.9 0c0-1.2.9-2.1 2.1-2.1s2.1.9 2.1 2.1v21.1c0 1.2-.9 2.1-2.1 2.1s-2.1-.9-2.1-2.1v-21.1zm26 2.1h-8.4c-1.2 0-2.1-.9-2.1-2.1s.9-2.1 2.1-2.1h21.1c1.2 0 2.1.9 2.1 2.1s-.9 2.1-2.1 2.1h-8.4v19c0 1.2-.9 2.1-2.1 2.1s-2.1-.9-2.1-2.1v-19h-.1zm34.4 0h-8.4c-1.2 0-2.1-.9-2.1-2.1s.9-2.1 2.1-2.1h21.1c1.2 0 2.1.9 2.1 2.1s-.9 2.1-2.1 2.1h-8.4v19c0 1.2-.9 2.1-2.1 2.1s-2.1-.9-2.1-2.1v-19h-.1zm25.3-2.1c0-1.2.9-2.1 2.1-2.1 1.2 0 2.1.9 2.1 2.1v19h15.4c1.2 0 2.1.9 2.1 2.1s-.9 2.1-2.1 2.1h-17.5c-1.2 0-2.1-.9-2.1-2.1v-21.1zm32.3 0c0-1.2.9-2.1 2.1-2.1h17.5c1.2 0 2.1.9 2.1 2.1s-.9 2.1-2.1 2.1h-15.4v6.3h11.9c1.2 0 2.1.9 2.1 2.1s-.9 2.1-2.1 2.1h-11.9v6.3h15.4c1.2 0 2.1.9 2.1 2.1s-.9 2.1-2.1 2.1h-17.5c-1.2 0-2.1-.9-2.1-2.1v-21zm50.5 0c0-1.2.9-2.1 2.1-2.1s2.1.9 2.1 2.1v16l17.4-17.4c.4-.4.9-.6 1.5-.6 1.2 0 2.1.9 2.1 2.1 0 .6-.2 1.1-.6 1.5l-9 9 9 9.1c.4.4.6.9.6 1.5 0 1.2-.9 2.1-2.1 2.1-.6 0-1.1-.2-1.5-.6l-9-9.1-9.1 9.1c-.4.4-.9.6-1.5.6-1.2 0-2.1-.9-2.1-2.1v-21.2h.1zm37.2 0c0-1.2.9-2.1 2.1-2.1.6 0 1.1.2 1.5.6l17.5 17.5v-16c0-1.2.9-2.1 2.1-2.1s2.1.9 2.1 2.1v21.1c0 1.2-.9 2.1-2.1 2.1-.6 0-1.1-.2-1.5-.6l-17.4-17.5v16c0 1.2-.9 2.1-2.1 2.1s-2.1-.9-2.1-2.1v-21.1h-.1zm48.1-2.1c7 0 12.6 5.6 12.6 12.6s-5.7 12.6-12.6 12.6c-7 0-12.6-5.6-12.6-12.6s5.6-12.6 12.6-12.6zm0 21.1c4.6 0 8.4-3.8 8.4-8.4s-3.8-8.4-8.4-8.4-8.4 3.8-8.4 8.4 3.8 8.4 8.4 8.4zm39.9-13.4c-2.2 5.4-4.6 11.3-6.6 16.2-.4.8-1.1 1.3-2 1.3s-1.6-.5-2-1.3l-8.5-21c-.1-.3-.2-.6-.2-.9 0-1.2.9-2.1 2.1-2.1.9 0 1.6.6 2 1.3 2 5 4.4 10.9 6.6 16.2l6.6-16.2c.3-.7 1.1-1.3 2-1.3s1.6.6 2 1.3c2 5 4.4 10.9 6.6 16.2l6.6-16.2c.3-.7 1.1-1.3 2-1.3 1.2 0 2.1.9 2.1 2.1 0 .3-.1.6-.2.9-2.7 6.5-5.9 14.6-8.5 21-.4.8-1.1 1.3-2 1.3s-1.6-.5-2-1.3l-6.6-16.2zm29-5.6c0-1.2.9-2.1 2.1-2.1.6 0 1.1.2 1.5.6l17.5 17.5v-16c0-1.2.9-2.1 2.1-2.1s2.1.9 2.1 2.1v21.1c0 1.2-.9 2.1-2.1 2.1-.6 0-1.1-.2-1.5-.6l-17.4-17.5v16c0 1.2-.9 2.1-2.1 2.1s-2.1-.9-2.1-2.1v-21.1h-.1zm-235 53.1c0-1.2.9-2.1 2.1-2.1h7c1.2 0 2.1.9 2.1 2.1v7c0 .6-.2 1.1-.6 1.5-2.3 2.3-5.4 3.7-8.9 3.7-7 0-12.6-5.7-12.6-12.6s5.7-12.6 12.6-12.6c3.3 0 6.4 1.4 8.7 3.5.5.4.9 1 .9 1.7 0 1.2-.9 2.1-2.1 2.1-.6 0-1.1-.2-1.5-.6-1.5-1.5-3.6-2.5-5.9-2.5-4.6 0-8.4 3.8-8.4 8.4s3.8 8.4 8.4 8.4c2 0 3.9-.7 5.3-1.9v-4h-4.9c-1.3 0-2.2-1-2.2-2.1zm34.4-13.1c7 0 12.6 5.7 12.6 12.6s-5.7 12.6-12.6 12.6c-7 0-12.6-5.7-12.6-12.6s5.6-12.6 12.6-12.6zm0 21.1c4.6 0 8.4-3.8 8.4-8.4s-3.8-8.4-8.4-8.4c-4.6 0-8.4 3.8-8.4 8.4s3.8 8.4 8.4 8.4zm35.8-21.1c7 0 12.6 5.7 12.6 12.6s-5.7 12.6-12.6 12.6c-7 0-12.6-5.7-12.6-12.6s5.6-12.6 12.6-12.6zm0 21.1c4.6 0 8.4-3.8 8.4-8.4s-3.8-8.4-8.4-8.4-8.4 3.8-8.4 8.4 3.8 8.4 8.4 8.4zm24.2-19c0-1.2.9-2.1 2.1-2.1h9c6.9.1 12.4 5.7 12.4 12.6 0 7-5.7 12.6-12.6 12.6h-8.8c-1.2 0-2.1-.9-2.1-2.1v-21zm10.9 2.1h-6.7v16.8h6.7c4.6 0 8.4-3.8 8.4-8.4s-3.8-8.4-8.4-8.4zm34.2 16.9c3.6 0 6.5-.8 6.5-3.2 0-2.4-2.9-3.2-6.5-3.2-6.2 0-10.7-2.4-10.7-7.4 0-4.7 4.5-7.4 10.7-7.4 2.6 0 5.9.6 8.2 1.6 1.2.5 1.7 1.6 1.3 2.7-.5 1.3-1.5 1.6-2.6 1.3-2-.8-3.9-1.3-6.8-1.3-3.6 0-6.5.8-6.5 3.2 0 2.4 2.9 3.2 6.5 3.2 6.2 0 10.7 2.4 10.7 7.4 0 4.7-4.5 7.4-10.7 7.4h-1.1c-2.6 0-6-.6-8.2-1.5-1.1-.4-1.7-1.6-1.3-2.7.5-1.2 1.6-1.6 2.7-1.3 2.1.8 4.3 1.3 6.8 1.3h1v-.1z"/><path class="st2" d="M32 32h448v221.1H32z"/><path class="st2" d="M65.9 213.1v41.6l192.3-.9L122 122l-35 43.7z"/><path class="st2" d="M65.9 213.1v41.6l192.3-.9L122 122l-35 43.7z"/><path class="st2" d="M65.9 213.1v41.6l192.3-.9L122 122l-35 43.7z"/><path class="st2" d="M65.9 213.1v41.6l192.3-.9L122 122l-35 43.7z"/><path class="st2" d="M65.9 213.1v41.6l192.3-.9L122 122l-35 43.7z"/><path class="st2" d="M65.9 213.1v41.6l192.3-.9L122 122l-35 43.7z"/><path class="st2" d="M65.9 213.1v41.6l192.3-.9L122 122l-35 43.7z"/><path class="st2" d="M65.9 213.1v41.6l192.3-.9L122 122l-35 43.7z"/><path class="st2" d="M65.9 213.1v41.6l192.3-.9L122 122l-35 43.7z"/><path class="st2" d="M65.9 213.1v41.6l192.3-.9L122 122l-35 43.7z"/><path class="st2" d="M65.9 213.1v41.6l192.3-.9L122 122l-35 43.7z"/><path class="st2" d="M65.9 213.1v41.6l192.3-.9L122 122l-35 43.7z"/><path class="st2" d="M65.9 213.1v41.6l192.3-.9L122 122l-35 43.7z"/><path class="st2" d="M65.9 213.1v41.6l192.3-.9L122 122l-35 43.7z"/><path class="st2" d="M65.9 213.1v41.6l192.3-.9L122 122l-35 43.7z"/><path class="st2" d="M65.9 213.1v41.6l192.3-.9L122 122l-35 43.7z"/><path class="st2" d="M65.9 213.1v41.6l192.3-.9L122 122l-35 43.7z"/><path class="st2" d="M65.9 213.1v41.6l192.3-.9L122 122l-35 43.7z"/><path class="st2" d="M65.9 213.1v41.6l192.3-.9L122 122l-35 43.7z"/><path class="st2" d="M65.9 213.1v41.6l192.3-.9L122 122l-35 43.7z"/><path class="st2" d="M65.9 213.1v41.6l192.3-.9L122 122l-35 43.7z"/><path class="st2" d="M65.9 213.1v41.6l192.3-.9L122 122l-35 43.7z"/><path class="st2" d="M32 32h448v221.1H32z"/><path class="st0" d="M259.2 252.8l132.2-132.2"/><path class="st2" d="M32 32h448v221.1H32z"/><path class="st0" d="M353.9 203.8l13.6-13.6 13.7 13.6"/><path class="st2" d="M32 32h448v221.1H32z"/><path class="st0" d="M353.9 216.9l13.6-13.7 13.7 13.7"/><path class="st2" d="M32 32h448v221.1H32z"/><path class="st0" d="M353.9 230l13.6-13.7 13.7 13.7m-13.7-52.9v76m-51.1-35.4l13.7-13.7 13.6 13.7"/><path class="st2" d="M32 32h448v221.1H32z"/><path class="st0" d="M316.4 230l13.7-13.6 13.6 13.6"/><path class="st2" d="M32 32h448v221.1H32z"/><path class="st0" d="M316.4 242.3l13.7-13.6 13.6 13.6M330.1 204v49.1m62.4-38.3l13.6-13.7 13.7 13.7"/><path class="st2" d="M32 32h448v221.1H32z"/><path class="st0" d="M392.5 227.1l13.6-13.7 13.7 13.7"/><path class="st2" d="M32 32h448v221.1H32z"/><path class="st0" d="M392.5 239.4l13.6-13.6 13.7 13.6m-13.7-38.3v52M253.3 106.9l-6.3 23.8-23.8 6.3c-2.6.9-2.6 4.6 0 5.5l23.8 6.3 6.3 23.8c.9 2.6 4.6 2.6 5.5 0l6.3-23.8 23.8-6.3c2.6-.9 2.6-4.6 0-5.5l-23.8-6.3-6.3-23.8c-.9-2.7-4.7-2.7-5.5 0z"/><path class="st2" d="M32 32h448v221.1H32z"/><path class="st0" d="M122 122l130.8 130.8M353.9 190.7l13.6-13.6 13.7 13.6M391.4 171.2v-50.6h-50.6zM154.4 418.5c61.9 38.8 141.2 38.8 203.2 0"/><path class="st0" d="M447.6 253.1c-.7-48.1-19.4-95.9-56.1-132.6-74.8-74.8-196.1-74.8-271 0-36.7 36.7-55.3 84.5-56.1 132.6M32 253.1h448v165.4H32V253.1z"/><path class="st0" d="M110.3 253.1h12.4l3.2-3.3c4.9-5 4.9-13.1 0-18.1l-6.8-7c-4.9-5-4.9-13.1 0-18.1l6.8-7c4.9-5 4.9-13.1 0-18.1l-6.8-7c-4.9-5-4.9-13.1 0-18.1l6.8-7c4.9-5 4.9-13.1 0-18.1l-6.8-7"/><path class="st0" d="M129.7 253.1h11.6l4-4.1c4.9-5 4.9-13.1 0-18.1l-6.8-7c-4.9-5-4.9-13.1 0-18.1l6.8-7c4.9-5 4.9-13.1 0-18.1l-6.8-7c-4.9-5-4.9-13.1 0-18.1l6.8-7c.4-.4.8-.9 1.2-1.4l-16.8-16.8"/><path class="st0" d="M149.1 253.1H160l4.7-4.8c4.9-5 4.9-13.1 0-18.1l-6.8-7c-4.9-5-4.9-13.1 0-18.1l6.8-7c4.9-5 4.9-13.1 0-18.1l-6.8-7c-4.3-4.4-4.8-11-1.7-16l-7.1-7.1"/><path class="st0" d="M168.5 253.1h10.3l5.3-5.5c4.9-5 4.9-13.1 0-18.1l-6.8-7c-4.9-5-4.9-13.1 0-18.1l6.8-7c2.4-2.5 3.6-5.7 3.7-8.9l-19.3-19.3"/></svg>
